<svg width="32" height="32" viewBox="0 0 32 32" fill="none" xmlns="http://www.w3.org/2000/svg">
<path d="M24.0372 16C24.0372 15.5948 24.3159 15.2402 24.713 15.1479L24.0372 16ZM24.0372 16C24.0372 16.4052 24.3159 16.7598 24.713 16.8521M24.0372 16L24.713 16.8521M24.713 16.8521C27.6803 17.5436 29.752 20.1571 29.752 23.2129C29.752 26.8184 26.8262 29.75 23.2337 29.75C20.168 29.75 17.4837 27.5669 16.8555 24.5613L24.713 16.8521ZM7.28661 16.8521C7.68392 16.76 7.96276 16.4053 7.96276 16C7.96276 15.5948 7.68409 15.2402 7.28698 15.1479C4.31966 14.4564 2.24801 11.8429 2.24801 8.78711C2.24801 5.18162 5.17379 2.25 8.76631 2.25C11.832 2.25 14.5164 4.43318 15.1447 7.43885C15.2291 7.84342 15.5857 8.13464 16.0001 8.13464C16.4145 8.13464 16.7711 7.84341 16.8555 7.43882C17.4836 4.43318 20.168 2.25 23.2337 2.25C26.8262 2.25 29.752 5.18162 29.752 8.78711C29.752 11.8428 27.6805 14.4561 24.7134 15.1478L7.28661 16.8521ZM7.28661 16.8521C4.31949 17.5439 2.24801 20.1572 2.24801 23.2129C2.24801 26.8184 5.17379 29.75 8.76631 29.75C11.832 29.75 14.5164 27.5668 15.1447 24.5611M7.28661 16.8521L16.8555 24.5612C16.7711 24.1566 16.4145 23.8654 16.0001 23.8654C15.5857 23.8654 15.2291 24.1566 15.1447 24.5611M15.1447 24.5611C15.1447 24.5613 15.1447 24.5614 15.1446 24.5615L15.634 24.6634L15.1447 24.5611ZM8.76631 31.5C11.8216 31.5 14.5722 29.7954 16.0001 27.2195C17.4278 29.7954 20.1783 31.5 23.2337 31.5C27.7934 31.5 31.5 27.7816 31.5 23.2129C31.5 20.1523 29.856 17.4359 27.3055 16C29.856 14.5641 31.5 11.8477 31.5 8.78711C31.5 4.2184 27.7934 0.5 23.2337 0.5C20.1743 0.5 17.4261 2.24509 16.0001 4.82599C14.5738 2.24509 11.8256 0.5 8.76631 0.5C4.20664 0.5 0.5 4.2184 0.5 8.78711C0.5 11.8477 2.14404 14.5641 4.69449 16C2.14404 17.4359 0.5 20.1523 0.5 23.2129C0.5 27.7816 4.20664 31.5 8.76631 31.5Z" stroke="#3DB370"/>
</svg>
