<svg width="30" height="30" viewBox="0 0 30 30" fill="none" xmlns="http://www.w3.org/2000/svg">
<path d="M30 7.78711C30 3.49328 26.516 0 22.2337 0C19.0119 0 16.1468 2.06738 15.0001 5C13.8532 2.06738 10.9879 0 7.76631 0C3.48404 0 0 3.49328 0 7.78711C0 11.0134 1.94162 13.8292 4.84675 15C1.94162 16.1708 0 18.9866 0 22.2129C0 26.5067 3.48404 30 7.76631 30C10.9879 30 13.8532 27.9796 15.0001 25.047C16.1468 27.9796 19.0119 30 22.2337 30C26.516 30 30 26.5067 30 22.2129C30 18.9866 28.0584 16.1708 25.1533 15C28.0584 13.8292 30 11.0134 30 7.78711ZM23.8265 14.6349C23.6572 14.6741 23.5372 14.8257 23.5372 15C23.5372 15.1743 23.6572 15.3259 23.8265 15.3651C27.0209 16.1096 29.252 18.9254 29.252 22.2129C29.252 26.0933 26.1036 29.25 22.2337 29.25C18.9308 29.25 16.0425 26.9004 15.3661 23.6635C15.3299 23.4899 15.1771 23.3654 15.0001 23.3654C14.8231 23.3654 14.6703 23.4899 14.6341 23.6635C13.9575 26.9004 11.0692 29.25 7.76631 29.25C3.89639 29.25 0.748014 26.0933 0.748014 22.2129C0.748014 18.9254 2.97909 16.1096 6.17349 15.3651C6.34278 15.3259 6.46276 15.1743 6.46276 15C6.46276 14.8257 6.34278 14.6741 6.17349 14.6349C2.97909 13.8904 0.748014 11.0746 0.748014 7.78711C0.748014 3.90674 3.89639 0.749999 7.76631 0.749999C11.0692 0.749999 13.9575 3.09961 14.6341 6.33655C14.6703 6.51013 14.8231 6.63464 15.0001 6.63464C15.1771 6.63464 15.3299 6.51013 15.3661 6.33655C16.0425 3.09961 18.9308 0.749999 22.2337 0.749999C26.1036 0.749999 29.252 3.90674 29.252 7.78711C29.252 11.0746 27.0209 13.8904 23.8265 14.6349Z" fill="#3DB370"/>
</svg>
